<?xml version="1.0" encoding="UTF-8"?>
<svg xmlns="http://www.w3.org/2000/svg" width="1800" height="1460" viewBox="0 0 1800 1460" role="img" aria-labelledby="title description">
<title id="title">BlendLib geometry and typography specification</title>
<desc id="description">Separate construction sheet. The logo artwork is the same outlined geometry as the master; guides are not part of that artwork.</desc>

<rect x="0" y="0" width="1800" height="1460" fill="#FAFAF7" stroke="#FAFAF7" stroke-width=".8"/>
<text x="64" y="55" font-family="Arial, Helvetica, sans-serif" font-size="17" fill="#087D89" font-weight="600" text-anchor="start">BLENDLIB / PARAMETRIC WORDMARK</text>
<text x="64" y="114" font-family="Arial, Helvetica, sans-serif" font-size="43" fill="#292D31" font-weight="600" text-anchor="start">Geometry + type specification</text>
<text x="64" y="151" font-family="Arial, Helvetica, sans-serif" font-size="19" fill="#657075" font-weight="400" text-anchor="start">Folded B as the initial letter. The remaining seven glyphs come from Minecraft.otf.</text>
<text x="1736" y="55" font-family="Arial, Helvetica, sans-serif" font-size="16" fill="#657075" font-weight="400" text-anchor="end">CONSTRUCTION / 01</text>
<line x1="64" y1="176" x2="1736" y2="176" stroke="#CBD3D1" stroke-width="1"/>
<rect x="70" y="225" width="1660" height="553.33333333" fill="#FFFFFF" stroke="#C3D0CF" stroke-width=".8"/>
<g transform="translate(70 225) scale(0.54142205)"><g id="layout-emblem" transform="translate(154 217) scale(28)">
<path id="layout-body" fill="#292D31" fill-rule="evenodd" d="M 4 0 L 14 5 L 14 9 L 11 10.5 L 14 12 L 14 16 L 4 21 L 0 19 L 0 2 Z M 4 4 L 10 7 L 4 10 Z M 4 11 L 10 14 L 4 17 Z"/>
<path id="layout-upper-fold" fill="#87898D" d="M 7 8.5 L 14 5 L 14 9 L 11 10.5 Z"/>
<path id="layout-lower-fold" fill="#87898D" d="M 10 14 L 14 12 L 14 16 L 10 18 Z"/>
</g>
<g id="layout-outlined-lendLib" fill="#292D31" fill-rule="nonzero">
<path id="layout-glyph-0-l" data-character="l" d="M704 749H764V689H704ZM704 689V629V569V509V449V389V329H644V389V449V509V569V629V689Z"/>
<path id="layout-glyph-1-e" data-character="e" d="M1102 689H1042H982H922V749H982H1042H1102H1162V689ZM922 689V629H982H1042H1102H1162V569V509H1102V569H1042H982H922V509H862V569V629V689ZM1102 509V449H1042H982H922V509H982H1042Z"/>
<path id="layout-glyph-2-n" data-character="n" d="M1500 749H1560V689V629V569V509H1500V569V629V689ZM1260 749H1320V689V629V569V509H1380H1440H1500V449H1440H1380H1320H1260V509V569V629V689Z"/>
<path id="layout-glyph-3-d" data-character="d" d="M1898 749H1958V689V629V569V509V449V389V329H1898V389V449V509H1838V569H1898V629V689H1838H1778H1718V749H1778H1838ZM1718 689V629V569V509H1658V569V629V689ZM1838 509V449H1778H1718V509H1778Z"/>
<path id="layout-glyph-4-L" data-character="L" d="M2296 689H2236H2176H2116V629V569V509V449V389V329H2056V389V449V509V569V629V689V749H2116H2176H2236H2296H2356V689Z"/>
<path id="layout-glyph-5-i" data-character="i" d="M2454 749H2514V689V629V569V509V449H2454V509V569V629V689ZM2454 389H2514V329H2454Z"/>
<path id="layout-glyph-6-b" data-character="b" d="M2792 689H2732H2672V629V569H2732V509H2672V449V389V329H2612V389V449V509V569V629V689V749H2672H2732H2792H2852V689ZM2852 689H2912V629V569V509H2852V569V629ZM2852 509V449H2792H2732V509H2792Z"/>
</g>
</g>
<line x1="70" y1="210" x2="1730" y2="210" stroke="#087D89" stroke-width="1"/>
<line x1="66" y1="215" x2="74" y2="205" stroke="#087D89" stroke-width="1"/>
<line x1="1726" y1="215" x2="1734" y2="205" stroke="#087D89" stroke-width="1"/>
<text x="900" y="201" font-family="Arial, Helvetica, sans-serif" font-size="16" fill="#087D89" font-weight="400" text-anchor="middle">Canvas 109.5u x 36.5u / 3:1</text>
<line x1="153.37899543" y1="314.48858447" x2="1646.62100457" y2="314.48858447" stroke="#087D89" stroke-width="1"/>
<line x1="149.37899543" y1="319.48858447" x2="157.37899543" y2="309.48858447" stroke="#087D89" stroke-width="1"/>
<line x1="1642.62100457" y1="319.48858447" x2="1650.62100457" y2="309.48858447" stroke="#087D89" stroke-width="1"/>
<text x="900" y="305.48858447" font-family="Arial, Helvetica, sans-serif" font-size="16" fill="#087D89" font-weight="400" text-anchor="middle">Ink width = 98.5u</text>
<line x1="153.37899543" y1="403.12785388" x2="1720" y2="403.12785388" stroke="#087D89" stroke-width="0.75" stroke-dasharray="6 6"/>
<text x="1718" y="394.12785388" font-family="Arial, Helvetica, sans-serif" font-size="14" fill="#087D89" font-weight="400" text-anchor="end">CAP LINE / 15u</text>
<line x1="153.37899543" y1="630.52511416" x2="1720" y2="630.52511416" stroke="#087D89" stroke-width="0.75" stroke-dasharray="6 6"/>
<text x="1718" y="763.33333333" font-family="Arial, Helvetica, sans-serif" font-size="14" fill="#087D89" font-weight="400" text-anchor="end">BASELINE / y = 19u</text>
<line x1="153.37899543" y1="660.84474886" x2="365.61643836" y2="660.84474886" stroke="#087D89" stroke-width="0.75" stroke-dasharray="4 5"/>
<rect x="418.67579909" y="403.12785388" width="64.97064579" height="227.39726027" fill="none" stroke="#85AEB3" stroke-width=".8" stroke-dasharray="3 4"/>
<text x="451.16112198" y="665.52511416" font-family="Arial, Helvetica, sans-serif" font-size="18" fill="#087D89" font-weight="600" text-anchor="middle">l</text>
<rect x="536.70580561" y="468.09849967" width="162.42661448" height="162.42661448" fill="none" stroke="#85AEB3" stroke-width=".8" stroke-dasharray="3 4"/>
<text x="617.91911285" y="665.52511416" font-family="Arial, Helvetica, sans-serif" font-size="18" fill="#087D89" font-weight="600" text-anchor="middle">e</text>
<rect x="752.19178082" y="468.09849967" width="162.42661448" height="162.42661448" fill="none" stroke="#85AEB3" stroke-width=".8" stroke-dasharray="3 4"/>
<text x="833.40508806" y="665.52511416" font-family="Arial, Helvetica, sans-serif" font-size="18" fill="#087D89" font-weight="600" text-anchor="middle">n</text>
<rect x="967.67775603" y="403.12785388" width="162.42661448" height="227.39726027" fill="none" stroke="#85AEB3" stroke-width=".8" stroke-dasharray="3 4"/>
<text x="1048.89106327" y="665.52511416" font-family="Arial, Helvetica, sans-serif" font-size="18" fill="#087D89" font-weight="600" text-anchor="middle">d</text>
<rect x="1183.16373125" y="403.12785388" width="162.42661448" height="227.39726027" fill="none" stroke="#85AEB3" stroke-width=".8" stroke-dasharray="3 4"/>
<text x="1264.37703849" y="665.52511416" font-family="Arial, Helvetica, sans-serif" font-size="18" fill="#087D89" font-weight="600" text-anchor="middle">L</text>
<rect x="1398.64970646" y="403.12785388" width="32.4853229" height="227.39726027" fill="none" stroke="#85AEB3" stroke-width=".8" stroke-dasharray="3 4"/>
<text x="1414.89236791" y="665.52511416" font-family="Arial, Helvetica, sans-serif" font-size="18" fill="#087D89" font-weight="600" text-anchor="middle">i</text>
<rect x="1484.19439008" y="403.12785388" width="162.42661448" height="227.39726027" fill="none" stroke="#85AEB3" stroke-width=".8" stroke-dasharray="3 4"/>
<text x="1565.40769733" y="665.52511416" font-family="Arial, Helvetica, sans-serif" font-size="18" fill="#087D89" font-weight="600" text-anchor="middle">b</text>
<line x1="365.61643836" y1="718.84474886" x2="418.67579909" y2="718.84474886" stroke="#087D89" stroke-width="1"/>
<line x1="361.61643836" y1="723.84474886" x2="369.61643836" y2="713.84474886" stroke="#087D89" stroke-width="1"/>
<line x1="414.67579909" y1="723.84474886" x2="422.67579909" y2="713.84474886" stroke="#087D89" stroke-width="1"/>
<text x="392.14611872" y="709.84474886" font-family="Arial, Helvetica, sans-serif" font-size="16" fill="#087D89" font-weight="400" text-anchor="middle">3.5u</text>
<line x1="483.64644488" y1="718.84474886" x2="536.70580561" y2="718.84474886" stroke="#087D89" stroke-width="1"/>
<line x1="479.64644488" y1="723.84474886" x2="487.64644488" y2="713.84474886" stroke="#087D89" stroke-width="1"/>
<line x1="532.70580561" y1="723.84474886" x2="540.70580561" y2="713.84474886" stroke="#087D89" stroke-width="1"/>
<text x="510.17612524" y="709.84474886" font-family="Arial, Helvetica, sans-serif" font-size="16" fill="#087D89" font-weight="400" text-anchor="middle">3.5u</text>
<line x1="699.13242009" y1="718.84474886" x2="752.19178082" y2="718.84474886" stroke="#087D89" stroke-width="1"/>
<line x1="695.13242009" y1="723.84474886" x2="703.13242009" y2="713.84474886" stroke="#087D89" stroke-width="1"/>
<line x1="748.19178082" y1="723.84474886" x2="756.19178082" y2="713.84474886" stroke="#087D89" stroke-width="1"/>
<text x="725.66210046" y="709.84474886" font-family="Arial, Helvetica, sans-serif" font-size="16" fill="#087D89" font-weight="400" text-anchor="middle">3.5u</text>
<line x1="914.6183953" y1="718.84474886" x2="967.67775603" y2="718.84474886" stroke="#087D89" stroke-width="1"/>
<line x1="910.6183953" y1="723.84474886" x2="918.6183953" y2="713.84474886" stroke="#087D89" stroke-width="1"/>
<line x1="963.67775603" y1="723.84474886" x2="971.67775603" y2="713.84474886" stroke="#087D89" stroke-width="1"/>
<text x="941.14807567" y="709.84474886" font-family="Arial, Helvetica, sans-serif" font-size="16" fill="#087D89" font-weight="400" text-anchor="middle">3.5u</text>
<line x1="1130.10437052" y1="718.84474886" x2="1183.16373125" y2="718.84474886" stroke="#087D89" stroke-width="1"/>
<line x1="1126.10437052" y1="723.84474886" x2="1134.10437052" y2="713.84474886" stroke="#087D89" stroke-width="1"/>
<line x1="1179.16373125" y1="723.84474886" x2="1187.16373125" y2="713.84474886" stroke="#087D89" stroke-width="1"/>
<text x="1156.63405088" y="709.84474886" font-family="Arial, Helvetica, sans-serif" font-size="16" fill="#087D89" font-weight="400" text-anchor="middle">3.5u</text>
<line x1="1345.59034573" y1="718.84474886" x2="1398.64970646" y2="718.84474886" stroke="#087D89" stroke-width="1"/>
<line x1="1341.59034573" y1="723.84474886" x2="1349.59034573" y2="713.84474886" stroke="#087D89" stroke-width="1"/>
<line x1="1394.64970646" y1="723.84474886" x2="1402.64970646" y2="713.84474886" stroke="#087D89" stroke-width="1"/>
<text x="1372.12002609" y="709.84474886" font-family="Arial, Helvetica, sans-serif" font-size="16" fill="#087D89" font-weight="400" text-anchor="middle">3.5u</text>
<line x1="1431.13502935" y1="718.84474886" x2="1484.19439008" y2="718.84474886" stroke="#087D89" stroke-width="1"/>
<line x1="1427.13502935" y1="723.84474886" x2="1435.13502935" y2="713.84474886" stroke="#087D89" stroke-width="1"/>
<line x1="1480.19439008" y1="723.84474886" x2="1488.19439008" y2="713.84474886" stroke="#087D89" stroke-width="1"/>
<text x="1457.66470972" y="709.84474886" font-family="Arial, Helvetica, sans-serif" font-size="16" fill="#087D89" font-weight="400" text-anchor="middle">3.5u</text>
<text x="80" y="763.33333333" font-family="Arial, Helvetica, sans-serif" font-size="15" fill="#657075" font-weight="400" text-anchor="start">Visible gaps are measured between ink bounds, not advance boxes.</text>
<line x1="64" y1="813" x2="1736" y2="813" stroke="#CBD3D1" stroke-width="1"/>
<text x="64" y="850" font-family="Arial, Helvetica, sans-serif" font-size="16" fill="#087D89" font-weight="600" text-anchor="start">02 / EMBLEM COORDINATES</text>
<line x1="166" y1="896" x2="166" y2="1298" stroke="#DCE7E4" stroke-width="0.65"/>
<line x1="184" y1="896" x2="184" y2="1298" stroke="#DCE7E4" stroke-width="0.65"/>
<line x1="202" y1="896" x2="202" y2="1298" stroke="#DCE7E4" stroke-width="0.65"/>
<line x1="220" y1="896" x2="220" y2="1298" stroke="#DCE7E4" stroke-width="0.65"/>
<line x1="238" y1="896" x2="238" y2="1298" stroke="#DCE7E4" stroke-width="0.65"/>
<line x1="256" y1="896" x2="256" y2="1298" stroke="#DCE7E4" stroke-width="0.65"/>
<line x1="274" y1="896" x2="274" y2="1298" stroke="#DCE7E4" stroke-width="0.65"/>
<line x1="292" y1="896" x2="292" y2="1298" stroke="#DCE7E4" stroke-width="0.65"/>
<line x1="310" y1="896" x2="310" y2="1298" stroke="#DCE7E4" stroke-width="0.65"/>
<line x1="328" y1="896" x2="328" y2="1298" stroke="#DCE7E4" stroke-width="0.65"/>
<line x1="346" y1="896" x2="346" y2="1298" stroke="#DCE7E4" stroke-width="0.65"/>
<line x1="364" y1="896" x2="364" y2="1298" stroke="#DCE7E4" stroke-width="0.65"/>
<line x1="382" y1="896" x2="382" y2="1298" stroke="#DCE7E4" stroke-width="0.65"/>
<line x1="400" y1="896" x2="400" y2="1298" stroke="#DCE7E4" stroke-width="0.65"/>
<line x1="418" y1="896" x2="418" y2="1298" stroke="#DCE7E4" stroke-width="0.65"/>
<line x1="154" y1="908" x2="430" y2="908" stroke="#DCE7E4" stroke-width="0.65"/>
<line x1="154" y1="926" x2="430" y2="926" stroke="#DCE7E4" stroke-width="0.65"/>
<line x1="154" y1="944" x2="430" y2="944" stroke="#DCE7E4" stroke-width="0.65"/>
<line x1="154" y1="962" x2="430" y2="962" stroke="#DCE7E4" stroke-width="0.65"/>
<line x1="154" y1="980" x2="430" y2="980" stroke="#DCE7E4" stroke-width="0.65"/>
<line x1="154" y1="998" x2="430" y2="998" stroke="#DCE7E4" stroke-width="0.65"/>
<line x1="154" y1="1016" x2="430" y2="1016" stroke="#DCE7E4" stroke-width="0.65"/>
<line x1="154" y1="1034" x2="430" y2="1034" stroke="#DCE7E4" stroke-width="0.65"/>
<line x1="154" y1="1052" x2="430" y2="1052" stroke="#DCE7E4" stroke-width="0.65"/>
<line x1="154" y1="1070" x2="430" y2="1070" stroke="#DCE7E4" stroke-width="0.65"/>
<line x1="154" y1="1088" x2="430" y2="1088" stroke="#DCE7E4" stroke-width="0.65"/>
<line x1="154" y1="1106" x2="430" y2="1106" stroke="#DCE7E4" stroke-width="0.65"/>
<line x1="154" y1="1124" x2="430" y2="1124" stroke="#DCE7E4" stroke-width="0.65"/>
<line x1="154" y1="1142" x2="430" y2="1142" stroke="#DCE7E4" stroke-width="0.65"/>
<line x1="154" y1="1160" x2="430" y2="1160" stroke="#DCE7E4" stroke-width="0.65"/>
<line x1="154" y1="1178" x2="430" y2="1178" stroke="#DCE7E4" stroke-width="0.65"/>
<line x1="154" y1="1196" x2="430" y2="1196" stroke="#DCE7E4" stroke-width="0.65"/>
<line x1="154" y1="1214" x2="430" y2="1214" stroke="#DCE7E4" stroke-width="0.65"/>
<line x1="154" y1="1232" x2="430" y2="1232" stroke="#DCE7E4" stroke-width="0.65"/>
<line x1="154" y1="1250" x2="430" y2="1250" stroke="#DCE7E4" stroke-width="0.65"/>
<line x1="154" y1="1268" x2="430" y2="1268" stroke="#DCE7E4" stroke-width="0.65"/>
<line x1="154" y1="1286" x2="430" y2="1286" stroke="#DCE7E4" stroke-width="0.65"/>
<g transform="translate(166 908) scale(18)"><path id="detail-body" fill="#292D31" fill-rule="evenodd" d="M 4 0 L 14 5 L 14 9 L 11 10.5 L 14 12 L 14 16 L 4 21 L 0 19 L 0 2 Z M 4 4 L 10 7 L 4 10 Z M 4 11 L 10 14 L 4 17 Z"/>
<path id="detail-upper-fold" fill="#87898D" d="M 7 8.5 L 14 5 L 14 9 L 11 10.5 Z"/>
<path id="detail-lower-fold" fill="#87898D" d="M 10 14 L 14 12 L 14 16 L 10 18 Z"/></g>
<circle cx="238" cy="908" r="2.8" fill="#FAFAF7" stroke="#087D89" stroke-width="1"/>
<text x="238" y="895" font-family="Arial, Helvetica, sans-serif" font-size="14" fill="#087D89" font-weight="600" text-anchor="middle">A</text>
<circle cx="166" cy="944" r="2.8" fill="#FAFAF7" stroke="#087D89" stroke-width="1"/>
<text x="149" y="944" font-family="Arial, Helvetica, sans-serif" font-size="14" fill="#087D89" font-weight="600" text-anchor="middle">B</text>
<circle cx="166" cy="1250" r="2.8" fill="#FAFAF7" stroke="#087D89" stroke-width="1"/>
<text x="149" y="1255" font-family="Arial, Helvetica, sans-serif" font-size="14" fill="#087D89" font-weight="600" text-anchor="middle">C</text>
<circle cx="238" cy="1286" r="2.8" fill="#FAFAF7" stroke="#087D89" stroke-width="1"/>
<text x="238" y="1308" font-family="Arial, Helvetica, sans-serif" font-size="14" fill="#087D89" font-weight="600" text-anchor="middle">D</text>
<circle cx="418" cy="1196" r="2.8" fill="#FAFAF7" stroke="#087D89" stroke-width="1"/>
<text x="434" y="1203" font-family="Arial, Helvetica, sans-serif" font-size="14" fill="#087D89" font-weight="600" text-anchor="middle">E</text>
<circle cx="418" cy="1124" r="2.8" fill="#FAFAF7" stroke="#087D89" stroke-width="1"/>
<text x="434" y="1120" font-family="Arial, Helvetica, sans-serif" font-size="14" fill="#087D89" font-weight="600" text-anchor="middle">F</text>
<circle cx="364" cy="1097" r="2.8" fill="#FAFAF7" stroke="#087D89" stroke-width="1"/>
<text x="381" y="1101" font-family="Arial, Helvetica, sans-serif" font-size="14" fill="#087D89" font-weight="600" text-anchor="middle">G</text>
<circle cx="418" cy="1070" r="2.8" fill="#FAFAF7" stroke="#087D89" stroke-width="1"/>
<text x="434" y="1075" font-family="Arial, Helvetica, sans-serif" font-size="14" fill="#087D89" font-weight="600" text-anchor="middle">H</text>
<circle cx="418" cy="998" r="2.8" fill="#FAFAF7" stroke="#087D89" stroke-width="1"/>
<text x="434" y="993" font-family="Arial, Helvetica, sans-serif" font-size="14" fill="#087D89" font-weight="600" text-anchor="middle">I</text>
<circle cx="238" cy="980" r="2.8" fill="#FAFAF7" stroke="#087D89" stroke-width="1"/>
<text x="224" y="978" font-family="Arial, Helvetica, sans-serif" font-size="14" fill="#087D89" font-weight="600" text-anchor="middle">J</text>
<circle cx="238" cy="1088" r="2.8" fill="#FAFAF7" stroke="#087D89" stroke-width="1"/>
<text x="224" y="1090" font-family="Arial, Helvetica, sans-serif" font-size="14" fill="#087D89" font-weight="600" text-anchor="middle">K</text>
<circle cx="346" cy="1034" r="2.8" fill="#FAFAF7" stroke="#087D89" stroke-width="1"/>
<text x="346" y="1023" font-family="Arial, Helvetica, sans-serif" font-size="14" fill="#087D89" font-weight="600" text-anchor="middle">L</text>
<circle cx="292" cy="1061" r="2.8" fill="#FAFAF7" stroke="#087D89" stroke-width="1"/>
<text x="284" y="1049" font-family="Arial, Helvetica, sans-serif" font-size="14" fill="#087D89" font-weight="600" text-anchor="middle">M</text>
<circle cx="238" cy="1106" r="2.8" fill="#FAFAF7" stroke="#087D89" stroke-width="1"/>
<text x="224" y="1111" font-family="Arial, Helvetica, sans-serif" font-size="14" fill="#087D89" font-weight="600" text-anchor="middle">N</text>
<circle cx="238" cy="1214" r="2.8" fill="#FAFAF7" stroke="#087D89" stroke-width="1"/>
<text x="224" y="1219" font-family="Arial, Helvetica, sans-serif" font-size="14" fill="#087D89" font-weight="600" text-anchor="middle">O</text>
<circle cx="346" cy="1160" r="2.8" fill="#FAFAF7" stroke="#087D89" stroke-width="1"/>
<text x="339" y="1149" font-family="Arial, Helvetica, sans-serif" font-size="14" fill="#087D89" font-weight="600" text-anchor="middle">P</text>
<circle cx="346" cy="1232" r="2.8" fill="#FAFAF7" stroke="#087D89" stroke-width="1"/>
<text x="336" y="1244" font-family="Arial, Helvetica, sans-serif" font-size="14" fill="#087D89" font-weight="600" text-anchor="middle">Q</text>
<line x1="166" y1="881" x2="418" y2="881" stroke="#087D89" stroke-width="1"/>
<line x1="162" y1="886" x2="170" y2="876" stroke="#087D89" stroke-width="1"/>
<line x1="414" y1="886" x2="422" y2="876" stroke="#087D89" stroke-width="1"/>
<text x="292" y="872" font-family="Arial, Helvetica, sans-serif" font-size="16" fill="#087D89" font-weight="400" text-anchor="middle">W = 14u</text>
<line x1="105" y1="908" x2="105" y2="1286" stroke="#087D89" stroke-width="1"/>
<line x1="100" y1="912" x2="110" y2="904" stroke="#087D89" stroke-width="1"/>
<line x1="100" y1="1290" x2="110" y2="1282" stroke="#087D89" stroke-width="1"/>
<text x="95" y="1102" font-family="Arial, Helvetica, sans-serif" font-size="16" fill="#087D89" font-weight="400" text-anchor="end">H = 21u</text>
<text x="64" y="1340" font-family="Arial, Helvetica, sans-serif" font-size="18" fill="#292D31" font-weight="400" text-anchor="start">m = 0.5 / +/- 26.565 deg</text>
<text x="64" y="1370" font-family="Arial, Helvetica, sans-serif" font-size="15" fill="#657075" font-weight="400" text-anchor="start">Two equal triangular counters; shared facet intersections.</text>
<line x1="548" y1="846" x2="548" y2="1380" stroke="#D5DCDA" stroke-width="1"/>
<text x="592" y="850" font-family="Arial, Helvetica, sans-serif" font-size="16" fill="#087D89" font-weight="600" text-anchor="start">03 / FONT OUTLINES &amp; METRICS</text>
<text x="592" y="901" font-family="Arial, Helvetica, sans-serif" font-size="29" fill="#292D31" font-weight="600" text-anchor="start">Minecraft / Medium</text>
<text x="592" y="942" font-family="Arial, Helvetica, sans-serif" font-size="17" fill="#657075" font-weight="400" text-anchor="start">Units per em</text>
<text x="1193" y="942" font-family="Arial, Helvetica, sans-serif" font-size="18" fill="#292D31" font-weight="600" text-anchor="end">18</text>
<text x="592" y="980" font-family="Arial, Helvetica, sans-serif" font-size="17" fill="#657075" font-weight="400" text-anchor="start">Font cap height</text>
<text x="1193" y="980" font-family="Arial, Helvetica, sans-serif" font-size="18" fill="#292D31" font-weight="600" text-anchor="end">14 fu -&gt; 15u</text>
<text x="592" y="1018" font-family="Arial, Helvetica, sans-serif" font-size="17" fill="#657075" font-weight="400" text-anchor="start">Font pixel</text>
<text x="1193" y="1018" font-family="Arial, Helvetica, sans-serif" font-size="18" fill="#292D31" font-weight="600" text-anchor="end">2 fu -&gt; 15/7u</text>
<text x="592" y="1056" font-family="Arial, Helvetica, sans-serif" font-size="17" fill="#657075" font-weight="400" text-anchor="start">Type / B height</text>
<text x="1193" y="1056" font-family="Arial, Helvetica, sans-serif" font-size="18" fill="#292D31" font-weight="600" text-anchor="end">15u / 21u</text>
<text x="592" y="1094" font-family="Arial, Helvetica, sans-serif" font-size="17" fill="#657075" font-weight="400" text-anchor="start">Visible letter gap</text>
<text x="1193" y="1094" font-family="Arial, Helvetica, sans-serif" font-size="18" fill="#292D31" font-weight="600" text-anchor="end">3.5u</text>
<text x="592" y="1132" font-family="Arial, Helvetica, sans-serif" font-size="17" fill="#657075" font-weight="400" text-anchor="start">Extra tracking</text>
<text x="1193" y="1132" font-family="Arial, Helvetica, sans-serif" font-size="18" fill="#292D31" font-weight="600" text-anchor="end">2/7u</text>
<text x="592" y="1170" font-family="Arial, Helvetica, sans-serif" font-size="17" fill="#657075" font-weight="400" text-anchor="start">Baseline optical shift</text>
<text x="1193" y="1170" font-family="Arial, Helvetica, sans-serif" font-size="18" fill="#292D31" font-weight="600" text-anchor="end">+1u</text>
<text x="592" y="1208" font-family="Arial, Helvetica, sans-serif" font-size="17" fill="#657075" font-weight="400" text-anchor="start">Baseline minus C.y</text>
<text x="1193" y="1208" font-family="Arial, Helvetica, sans-serif" font-size="18" fill="#292D31" font-weight="600" text-anchor="end">0u</text>
<text x="592" y="1246" font-family="Arial, Helvetica, sans-serif" font-size="17" fill="#657075" font-weight="400" text-anchor="start">Anisotropic scaling</text>
<text x="1193" y="1246" font-family="Arial, Helvetica, sans-serif" font-size="18" fill="#292D31" font-weight="600" text-anchor="end">None / equal x and y scale</text>
<text x="592" y="1284" font-family="Arial, Helvetica, sans-serif" font-size="17" fill="#657075" font-weight="400" text-anchor="start">Per-pair manual corrections</text>
<text x="1193" y="1284" font-family="Arial, Helvetica, sans-serif" font-size="18" fill="#292D31" font-weight="600" text-anchor="end">0u</text>
<text x="592" y="1367" font-family="Arial, Helvetica, sans-serif" font-size="16" fill="#657075" font-weight="400" text-anchor="start">All type paths are extracted from the supplied CFF font.</text>
<line x1="1232" y1="892" x2="1232" y2="1378" stroke="#D5DCDA" stroke-width="1"/>
<line x1="1275" y1="940" x2="1275" y2="1164" stroke="#C8DED9" stroke-width="0.8"/>
<line x1="1307" y1="940" x2="1307" y2="1164" stroke="#C8DED9" stroke-width="0.8"/>
<line x1="1339" y1="940" x2="1339" y2="1164" stroke="#C8DED9" stroke-width="0.8"/>
<line x1="1371" y1="940" x2="1371" y2="1164" stroke="#C8DED9" stroke-width="0.8"/>
<line x1="1403" y1="940" x2="1403" y2="1164" stroke="#C8DED9" stroke-width="0.8"/>
<line x1="1435" y1="940" x2="1435" y2="1164" stroke="#C8DED9" stroke-width="0.8"/>
<line x1="1275" y1="940" x2="1435" y2="940" stroke="#C8DED9" stroke-width="0.8"/>
<line x1="1275" y1="972" x2="1435" y2="972" stroke="#C8DED9" stroke-width="0.8"/>
<line x1="1275" y1="1004" x2="1435" y2="1004" stroke="#C8DED9" stroke-width="0.8"/>
<line x1="1275" y1="1036" x2="1435" y2="1036" stroke="#C8DED9" stroke-width="0.8"/>
<line x1="1275" y1="1068" x2="1435" y2="1068" stroke="#C8DED9" stroke-width="0.8"/>
<line x1="1275" y1="1100" x2="1435" y2="1100" stroke="#C8DED9" stroke-width="0.8"/>
<line x1="1275" y1="1132" x2="1435" y2="1132" stroke="#C8DED9" stroke-width="0.8"/>
<line x1="1275" y1="1164" x2="1435" y2="1164" stroke="#C8DED9" stroke-width="0.8"/>
<g transform="translate(1259 1164) scale(16 -16)"><path id="native-L" d="M9 2H7H5H3V4V6V8V10V12V14H1V12V10V8V6V4V2V0H3H5H7H9H11V2Z" fill="#292D31"/></g>
<text x="1355" y="1210" font-family="Arial, Helvetica, sans-serif" font-size="17" fill="#087D89" font-weight="600" text-anchor="middle">U+004C</text>
<line x1="1520" y1="940" x2="1520" y2="1164" stroke="#C8DED9" stroke-width="0.8"/>
<line x1="1552" y1="940" x2="1552" y2="1164" stroke="#C8DED9" stroke-width="0.8"/>
<line x1="1584" y1="940" x2="1584" y2="1164" stroke="#C8DED9" stroke-width="0.8"/>
<line x1="1616" y1="940" x2="1616" y2="1164" stroke="#C8DED9" stroke-width="0.8"/>
<line x1="1648" y1="940" x2="1648" y2="1164" stroke="#C8DED9" stroke-width="0.8"/>
<line x1="1680" y1="940" x2="1680" y2="1164" stroke="#C8DED9" stroke-width="0.8"/>
<line x1="1520" y1="940" x2="1680" y2="940" stroke="#C8DED9" stroke-width="0.8"/>
<line x1="1520" y1="972" x2="1680" y2="972" stroke="#C8DED9" stroke-width="0.8"/>
<line x1="1520" y1="1004" x2="1680" y2="1004" stroke="#C8DED9" stroke-width="0.8"/>
<line x1="1520" y1="1036" x2="1680" y2="1036" stroke="#C8DED9" stroke-width="0.8"/>
<line x1="1520" y1="1068" x2="1680" y2="1068" stroke="#C8DED9" stroke-width="0.8"/>
<line x1="1520" y1="1100" x2="1680" y2="1100" stroke="#C8DED9" stroke-width="0.8"/>
<line x1="1520" y1="1132" x2="1680" y2="1132" stroke="#C8DED9" stroke-width="0.8"/>
<line x1="1520" y1="1164" x2="1680" y2="1164" stroke="#C8DED9" stroke-width="0.8"/>
<g transform="translate(1504 1164) scale(16 -16)"><path id="native-e" d="M9 2H7H5H3V0H5H7H9H11V2ZM3 2V4H5H7H9H11V6V8H9V6H7H5H3V8H1V6V4V2ZM9 8V10H7H5H3V8H5H7Z" fill="#292D31"/></g>
<text x="1600" y="1210" font-family="Arial, Helvetica, sans-serif" font-size="17" fill="#087D89" font-weight="600" text-anchor="middle">U+0065</text>
<text x="1275" y="905" font-family="Arial, Helvetica, sans-serif" font-size="15" fill="#087D89" font-weight="600" text-anchor="start">FONT PIXEL GRID</text>
<text x="1275" y="1250" font-family="Arial, Helvetica, sans-serif" font-size="17" fill="#657075" font-weight="400" text-anchor="start">One square = 2 font units.</text>
<text x="1275" y="1290" font-family="Arial, Helvetica, sans-serif" font-size="17" fill="#292D31" font-weight="400" text-anchor="start">Native PNG: 3066 x 1022</text>
<text x="1275" y="1321" font-family="Arial, Helvetica, sans-serif" font-size="17" fill="#292D31" font-weight="400" text-anchor="start">1u = 28px</text>
<text x="1275" y="1352" font-family="Arial, Helvetica, sans-serif" font-size="17" fill="#292D31" font-weight="400" text-anchor="start">Integer type vertices: YES</text>
<line x1="64" y1="1402" x2="1736" y2="1402" stroke="#CBD3D1" stroke-width="1"/>
<text x="64" y="1435" font-family="Arial, Helvetica, sans-serif" font-size="16" fill="#657075" font-weight="400" text-anchor="start">MASTER: 10 filled paths / transparent background / no live text, grid, dimensions or annotations.</text>
<text x="1736" y="1435" font-family="Arial, Helvetica, sans-serif" font-size="14" fill="#087D89" font-weight="600" text-anchor="end">PARAMETERS -&gt; SHAPING -&gt; OUTLINES -&gt; EXPORT</text>
</svg>
